<?xml version="1.0" encoding="iso-8859-1"?>
<!-- Generator: Adobe Illustrator 19.0.0, SVG Export Plug-In . SVG Version: 6.00 Build 0)  -->
<svg version="1.1" id="Capa_1" xmlns="http://www.w3.org/2000/svg" xmlns:xlink="http://www.w3.org/1999/xlink" x="0px" y="0px"
	 viewBox="0 0 512 512" style="enable-background:new 0 0 512 512;" xml:space="preserve">
<g>
	<g>
		<path d="M481.632,184.332H30.368C13.623,184.332,0,197.955,0,214.7v263.592c0,16.745,13.623,30.368,30.368,30.368h451.265
			c16.745,0,30.368-13.623,30.368-30.368V214.7C512,197.955,498.377,184.332,481.632,184.332z M475.559,472.218H36.441V220.773
			h439.117V472.218z"/>
	</g>
</g>
<g>
	<g>
		<path d="M94.747,202.553v18.828c0,31.145-25.339,56.484-56.484,56.484H19.435v36.441h18.828c51.236,0,92.925-41.683,92.925-92.925
			v-18.828H94.747z"/>
	</g>
</g>
<g>
	<g>
		<path d="M473.129,277.865c-31.151,0-56.49-25.339-56.49-56.484v-18.828h-36.441v18.828c0,51.242,41.689,92.925,92.931,92.925
			h18.828v-36.441H473.129z"/>
	</g>
</g>
<g>
	<g>
		<path d="M473.135,378.68c-51.243,0-92.931,41.683-92.931,92.925v18.834h36.435v-18.834c0-31.145,25.339-56.484,56.49-56.484
			h18.828V378.68H473.135z"/>
	</g>
</g>
<g>
	<g>
		<path d="M38.263,378.68H19.435v36.441h18.828c31.145,0,56.484,25.339,56.484,56.484v18.834h36.441v-18.834
			C131.189,420.362,89.506,378.68,38.263,378.68z"/>
	</g>
</g>
<g>
	<g>
		<path d="M255.696,265.11c-44.877,0-81.385,36.514-81.385,81.385c0,44.871,36.508,81.386,81.385,81.386
			s81.386-36.514,81.386-81.386C337.082,301.624,300.574,265.11,255.696,265.11z M255.696,391.434
			c-24.78,0-44.944-20.158-44.944-44.944c0-24.786,20.164-44.944,44.944-44.944c24.786,0,44.944,20.158,44.944,44.944
			S280.482,391.434,255.696,391.434z"/>
	</g>
</g>
<g>
	<g>
		<path d="M418.067,10.112c-6.317-7.817-17.777-9.05-25.624-2.733l-104.41,84.295l-83.183-76.253
			c-3.596-3.292-8.351-5.011-13.228-4.768c-4.871,0.243-9.438,2.429-12.682,6.068L88.443,118.149
			c-6.705,7.501-6.043,19.022,1.464,25.721c3.474,3.104,7.805,4.628,12.123,4.628c5.011,0,10.003-2.059,13.599-6.092l78.209-87.647
			l81.13,74.371c6.657,6.086,16.745,6.408,23.76,0.747l116.612-94.14C423.168,29.414,424.389,17.941,418.067,10.112z"/>
	</g>
</g>
<g>
	<g>
		<path d="M403.891,3.34h-95.355c-10.064,0-18.221,8.157-18.221,18.221c0,10.064,8.157,18.221,18.221,18.221h77.134v77.741
			c0,10.064,8.157,18.221,18.221,18.221s18.221-8.163,18.221-18.221V21.561C422.112,11.497,413.955,3.34,403.891,3.34z"/>
	</g>
</g>
<g>
</g>
<g>
</g>
<g>
</g>
<g>
</g>
<g>
</g>
<g>
</g>
<g>
</g>
<g>
</g>
<g>
</g>
<g>
</g>
<g>
</g>
<g>
</g>
<g>
</g>
<g>
</g>
<g>
</g>
</svg>
